<mxfile host="app.diagrams.net" modified="2022-11-22T07:51:39.925Z" agent="5.0 (X11)" etag="Miy_txEGq_fmiwSei-MC" version="20.5.3" type="github" pages="2">
  <diagram id="fph5RQXhZdd7spSEOlrz" name="第 1 页">
    <mxGraphModel dx="1087" dy="546" grid="1" gridSize="10" guides="1" tooltips="1" connect="1" arrows="1" fold="1" page="1" pageScale="1" pageWidth="827" pageHeight="1169" math="1" shadow="0">
      <root>
        <mxCell id="0" />
        <mxCell id="1" parent="0" />
        <mxCell id="Kz4SoSz2w6yojEE7RU1R-1" value="&lt;br&gt;&lt;div align=&quot;left&quot;&gt;&lt;font size=&quot;1&quot;&gt;&lt;b style=&quot;font-size: 16px;&quot;&gt;&amp;nbsp;mes系统的主要特点&lt;/b&gt;&lt;/font&gt;&lt;/div&gt;&lt;div align=&quot;left&quot;&gt;&lt;font size=&quot;1&quot;&gt;&lt;span style=&quot;font-size: 16px;&quot;&gt;1. 是对整个车间生成过程的优化，而不是单一地解决某个生产瓶颈&lt;/span&gt;&lt;/font&gt;&lt;/div&gt;&lt;div align=&quot;left&quot;&gt;&lt;font size=&quot;1&quot;&gt;&lt;span style=&quot;font-size: 16px;&quot;&gt;2. 提供实时收集生产过程数据的功能，并作出相应的分析和处理&lt;/span&gt;&lt;/font&gt;&lt;/div&gt;&lt;div align=&quot;left&quot;&gt;&lt;font size=&quot;1&quot;&gt;&lt;span style=&quot;font-size: 16px;&quot;&gt;3. 与计划层和控制层进行信息交互，通过企业的连续信息流来实现企业信息全集成&lt;/span&gt;&lt;/font&gt;&lt;/div&gt;&lt;div align=&quot;left&quot;&gt;&lt;font size=&quot;1&quot;&gt;&lt;span style=&quot;font-size: 16px;&quot;&gt;4. 实现生产过程的透明化和实时监控&lt;/span&gt;&lt;/font&gt;&lt;/div&gt;&lt;div align=&quot;left&quot;&gt;&lt;font size=&quot;1&quot;&gt;&lt;span style=&quot;font-size: 16px;&quot;&gt;&lt;br&gt;&lt;/span&gt;&lt;/font&gt;&lt;/div&gt;&lt;div align=&quot;left&quot;&gt;&lt;font size=&quot;1&quot;&gt;&lt;span style=&quot;font-size: 16px;&quot;&gt;&lt;br&gt;&lt;/span&gt;&lt;/font&gt;&lt;/div&gt;" style="rounded=0;whiteSpace=wrap;html=1;align=left;verticalAlign=top;" vertex="1" parent="1">
          <mxGeometry x="7" y="9" width="810" height="1020" as="geometry" />
        </mxCell>
        <mxCell id="Kz4SoSz2w6yojEE7RU1R-19" value="" style="group" vertex="1" connectable="0" parent="1">
          <mxGeometry x="861" y="12" width="765" height="425" as="geometry" />
        </mxCell>
        <mxCell id="Kz4SoSz2w6yojEE7RU1R-13" value="" style="rounded=0;whiteSpace=wrap;html=1;fontSize=16;fillColor=#f5f5f5;strokeColor=#666666;fontColor=#333333;" vertex="1" parent="Kz4SoSz2w6yojEE7RU1R-19">
          <mxGeometry width="764" height="425" as="geometry" />
        </mxCell>
        <mxCell id="Kz4SoSz2w6yojEE7RU1R-5" value="" style="group;strokeColor=none;" vertex="1" connectable="0" parent="Kz4SoSz2w6yojEE7RU1R-19">
          <mxGeometry x="184" y="51" width="100" height="323" as="geometry" />
        </mxCell>
        <mxCell id="Kz4SoSz2w6yojEE7RU1R-3" value="" style="verticalLabelPosition=bottom;verticalAlign=top;html=1;shape=mxgraph.basic.orthogonal_triangle;fontSize=16;fillColor=#f8cecc;strokeColor=none;" vertex="1" parent="Kz4SoSz2w6yojEE7RU1R-5">
          <mxGeometry width="30" height="232" as="geometry" />
        </mxCell>
        <mxCell id="Kz4SoSz2w6yojEE7RU1R-4" value="" style="verticalLabelPosition=bottom;verticalAlign=top;html=1;shape=mxgraph.basic.orthogonal_triangle;fontSize=16;fillColor=#f8cecc;strokeColor=none;" vertex="1" parent="Kz4SoSz2w6yojEE7RU1R-5">
          <mxGeometry y="153" width="100" height="170" as="geometry" />
        </mxCell>
        <mxCell id="Kz4SoSz2w6yojEE7RU1R-11" value="" style="group" vertex="1" connectable="0" parent="Kz4SoSz2w6yojEE7RU1R-19">
          <mxGeometry x="477" y="61" width="100" height="323" as="geometry" />
        </mxCell>
        <mxCell id="Kz4SoSz2w6yojEE7RU1R-9" value="" style="verticalLabelPosition=bottom;verticalAlign=top;html=1;shape=mxgraph.basic.orthogonal_triangle;fontSize=16;fillColor=#f8cecc;strokeColor=none;movable=1;resizable=1;rotatable=1;deletable=1;editable=1;connectable=1;rotation=-180;flipV=0;flipH=1;" vertex="1" parent="Kz4SoSz2w6yojEE7RU1R-11">
          <mxGeometry y="91" width="30" height="232" as="geometry" />
        </mxCell>
        <mxCell id="Kz4SoSz2w6yojEE7RU1R-10" value="" style="verticalLabelPosition=bottom;verticalAlign=top;html=1;shape=mxgraph.basic.orthogonal_triangle;fontSize=16;fillColor=#f8cecc;strokeColor=none;movable=1;resizable=1;rotatable=1;deletable=1;editable=1;connectable=1;rotation=-180;flipH=1;" vertex="1" parent="Kz4SoSz2w6yojEE7RU1R-11">
          <mxGeometry width="100" height="170" as="geometry" />
        </mxCell>
        <mxCell id="Kz4SoSz2w6yojEE7RU1R-7" value="" style="line;strokeWidth=2;html=1;strokeColor=#828282;fontSize=16;" vertex="1" parent="Kz4SoSz2w6yojEE7RU1R-19">
          <mxGeometry x="166" y="169" width="508" height="10" as="geometry" />
        </mxCell>
        <mxCell id="Kz4SoSz2w6yojEE7RU1R-12" value="" style="line;strokeWidth=2;html=1;strokeColor=#828282;fontSize=16;" vertex="1" parent="Kz4SoSz2w6yojEE7RU1R-19">
          <mxGeometry x="166" y="290" width="510" height="11" as="geometry" />
        </mxCell>
        <mxCell id="Kz4SoSz2w6yojEE7RU1R-15" value="&lt;div align=&quot;left&quot;&gt;&lt;b&gt;详细程度&lt;/b&gt;&lt;/div&gt;&lt;div&gt;&lt;br&gt;&lt;/div&gt;&lt;div&gt;&lt;br&gt;&lt;/div&gt;&lt;div&gt;&lt;font style=&quot;font-size: 12px;&quot;&gt;费用、期限、库存&lt;/font&gt;&lt;br&gt;&lt;/div&gt;&lt;div&gt;&lt;br&gt;&lt;/div&gt;&lt;div style=&quot;font-size: 12px;&quot;&gt;&lt;div&gt;&lt;font style=&quot;font-size: 12px;&quot;&gt;费用、期限、库存&lt;/font&gt;&lt;/div&gt;&lt;div&gt;&lt;br&gt;&lt;/div&gt;&lt;div&gt;&lt;br&gt;&lt;/div&gt;&lt;div&gt;&lt;br&gt;&lt;/div&gt;&lt;div&gt;时间、数量、工艺&lt;/div&gt;&lt;div&gt;&lt;br&gt;&lt;/div&gt;&lt;div&gt;&lt;br&gt;&lt;/div&gt;&lt;div&gt;&lt;br&gt;&lt;/div&gt;&lt;div&gt;时刻、数量、零件、工艺&lt;/div&gt;&lt;div&gt;&lt;br&gt;&lt;/div&gt;&lt;div&gt;&lt;br&gt;&lt;/div&gt;&lt;div&gt;过程、过程数据、状态&lt;br&gt;&lt;/div&gt;&lt;div&gt;&lt;br&gt;&lt;/div&gt;&lt;/div&gt;" style="text;html=1;strokeColor=none;fillColor=none;align=left;verticalAlign=top;whiteSpace=wrap;rounded=0;fontSize=16;" vertex="1" parent="Kz4SoSz2w6yojEE7RU1R-19">
          <mxGeometry x="29" y="29" width="150" height="306" as="geometry" />
        </mxCell>
        <mxCell id="Kz4SoSz2w6yojEE7RU1R-16" value="&lt;b&gt;时间范围&lt;/b&gt;&lt;div style=&quot;font-size: 15px;&quot;&gt;&lt;font style=&quot;font-size: 15px;&quot;&gt;&lt;br&gt;&lt;/font&gt;&lt;/div&gt;&lt;div style=&quot;font-size: 12px;&quot;&gt;&lt;font style=&quot;font-size: 12px;&quot;&gt;&lt;br&gt;&lt;/font&gt;&lt;/div&gt;&lt;div style=&quot;font-size: 12px;&quot;&gt;&lt;font style=&quot;font-size: 12px;&quot;&gt;&lt;br&gt;&lt;/font&gt;&lt;/div&gt;&lt;div style=&quot;font-size: 12px;&quot;&gt;&lt;font style=&quot;font-size: 12px;&quot;&gt;长期：月、星期&lt;br&gt;&lt;/font&gt;&lt;/div&gt;&lt;div style=&quot;font-size: 12px;&quot;&gt;&lt;font style=&quot;font-size: 12px;&quot;&gt;&lt;br&gt;&lt;/font&gt;&lt;/div&gt;&lt;div style=&quot;font-size: 12px;&quot;&gt;&lt;div&gt;&lt;font style=&quot;font-size: 12px;&quot;&gt;&lt;br&gt;&lt;/font&gt;&lt;/div&gt;&lt;div&gt;&lt;font style=&quot;font-size: 12px;&quot;&gt;中期：星期、天数&lt;/font&gt;&lt;/div&gt;&lt;div&gt;&lt;font style=&quot;font-size: 12px;&quot;&gt;&lt;br&gt;&lt;/font&gt;&lt;/div&gt;&lt;div&gt;&lt;font style=&quot;font-size: 12px;&quot;&gt;&lt;br&gt;&lt;/font&gt;&lt;/div&gt;&lt;div&gt;&lt;font style=&quot;font-size: 12px;&quot;&gt;&lt;br&gt;&lt;/font&gt;&lt;/div&gt;&lt;div&gt;&lt;font style=&quot;font-size: 12px;&quot;&gt;&lt;br&gt;&lt;/font&gt;&lt;/div&gt;&lt;div&gt;&lt;font style=&quot;font-size: 12px;&quot;&gt;短期：天数、班次&lt;br&gt;&lt;/font&gt;&lt;/div&gt;&lt;div&gt;&lt;font style=&quot;font-size: 12px;&quot;&gt;&lt;br&gt;&lt;/font&gt;&lt;/div&gt;&lt;div&gt;&lt;font style=&quot;font-size: 12px;&quot;&gt;&lt;br&gt;&lt;/font&gt;&lt;/div&gt;&lt;div&gt;&lt;font style=&quot;font-size: 12px;&quot;&gt;&lt;br&gt;&lt;/font&gt;&lt;/div&gt;&lt;div&gt;&lt;font style=&quot;font-size: 12px;&quot;&gt;同班次、分钟&lt;br&gt;&lt;/font&gt;&lt;/div&gt;&lt;div&gt;&lt;font style=&quot;font-size: 12px;&quot;&gt;&lt;br&gt;&lt;/font&gt;&lt;/div&gt;&lt;div&gt;&lt;font style=&quot;font-size: 12px;&quot;&gt;&lt;br&gt;&lt;/font&gt;&lt;/div&gt;&lt;div&gt;&lt;font style=&quot;font-size: 12px;&quot;&gt;在线分钟、秒&lt;/font&gt;&lt;font style=&quot;font-size: 12px;&quot;&gt;&lt;br&gt;&lt;/font&gt;&lt;/div&gt;&lt;div&gt;&lt;br&gt;&lt;/div&gt;&lt;/div&gt;" style="text;html=1;strokeColor=none;fillColor=none;align=left;verticalAlign=top;whiteSpace=wrap;rounded=0;fontSize=16;" vertex="1" parent="Kz4SoSz2w6yojEE7RU1R-19">
          <mxGeometry x="615" y="19" width="150" height="324" as="geometry" />
        </mxCell>
        <mxCell id="Kz4SoSz2w6yojEE7RU1R-17" value="&lt;div style=&quot;font-size: 14px;&quot;&gt;&lt;br style=&quot;font-size: 14px;&quot;&gt;&lt;/div&gt;&lt;div style=&quot;font-size: 14px;&quot;&gt;&lt;br style=&quot;font-size: 14px;&quot;&gt;&lt;/div&gt;&lt;div style=&quot;font-size: 14px;&quot;&gt;企业资源计划/生产计划与控制&lt;/div&gt;&lt;div style=&quot;font-size: 14px;&quot;&gt;&lt;br style=&quot;font-size: 14px;&quot;&gt;&lt;/div&gt;&lt;div style=&quot;font-size: 14px;&quot;&gt;&lt;br style=&quot;font-size: 14px;&quot;&gt;&lt;/div&gt;&lt;div style=&quot;font-size: 14px;&quot;&gt;&lt;br style=&quot;font-size: 14px;&quot;&gt;&lt;/div&gt;&lt;div style=&quot;font-size: 14px;&quot;&gt;&lt;br style=&quot;font-size: 14px;&quot;&gt;&lt;/div&gt;&lt;div style=&quot;font-size: 14px;&quot;&gt;&lt;br&gt;&lt;/div&gt;&lt;div style=&quot;font-size: 14px;&quot;&gt;&lt;br style=&quot;font-size: 14px;&quot;&gt;&lt;/div&gt;&lt;div style=&quot;font-size: 14px;&quot;&gt;生产制造管理&lt;/div&gt;&lt;div style=&quot;font-size: 14px;&quot;&gt;&lt;br style=&quot;font-size: 14px;&quot;&gt;&lt;/div&gt;&lt;div style=&quot;font-size: 14px;&quot;&gt;&lt;br style=&quot;font-size: 14px;&quot;&gt;&lt;/div&gt;&lt;div style=&quot;font-size: 14px;&quot;&gt;&lt;br style=&quot;font-size: 14px;&quot;&gt;&lt;/div&gt;&lt;div style=&quot;font-size: 14px;&quot;&gt;&lt;br&gt;&lt;/div&gt;&lt;div style=&quot;font-size: 14px;&quot;&gt;&lt;br style=&quot;font-size: 14px;&quot;&gt;&lt;/div&gt;&lt;div style=&quot;font-size: 14px;&quot;&gt;自动化&lt;br style=&quot;font-size: 14px;&quot;&gt;&lt;/div&gt;" style="text;html=1;strokeColor=none;fillColor=none;align=center;verticalAlign=top;whiteSpace=wrap;rounded=0;fontSize=14;" vertex="1" parent="Kz4SoSz2w6yojEE7RU1R-19">
          <mxGeometry x="230" y="75" width="235" height="290" as="geometry" />
        </mxCell>
        <mxCell id="Kz4SoSz2w6yojEE7RU1R-18" value="&lt;font style=&quot;font-size: 11px;&quot;&gt;图示&amp;nbsp;&amp;nbsp;&amp;nbsp; 制造企业3个层次信息化程度和响应时间&lt;/font&gt;" style="text;html=1;strokeColor=none;fillColor=none;align=center;verticalAlign=middle;whiteSpace=wrap;rounded=0;fontSize=11;" vertex="1" parent="Kz4SoSz2w6yojEE7RU1R-19">
          <mxGeometry x="208" y="393" width="338" height="30" as="geometry" />
        </mxCell>
        <mxCell id="Kz4SoSz2w6yojEE7RU1R-35" style="edgeStyle=orthogonalEdgeStyle;shape=flexArrow;rounded=0;orthogonalLoop=1;jettySize=auto;html=1;fontSize=11;fontColor=#666666;endSize=6;fillColor=#ffe6cc;strokeColor=#d79b00;" edge="1" parent="1" source="Kz4SoSz2w6yojEE7RU1R-20" target="Kz4SoSz2w6yojEE7RU1R-25">
          <mxGeometry relative="1" as="geometry">
            <Array as="points">
              <mxPoint x="1203" y="610" />
              <mxPoint x="997" y="610" />
            </Array>
          </mxGeometry>
        </mxCell>
        <mxCell id="Kz4SoSz2w6yojEE7RU1R-36" style="edgeStyle=orthogonalEdgeStyle;shape=flexArrow;rounded=0;orthogonalLoop=1;jettySize=auto;html=1;fontSize=11;fontColor=#666666;endSize=6;fillColor=#ffe6cc;strokeColor=#d79b00;" edge="1" parent="1" source="Kz4SoSz2w6yojEE7RU1R-20" target="Kz4SoSz2w6yojEE7RU1R-26">
          <mxGeometry relative="1" as="geometry">
            <Array as="points">
              <mxPoint x="1203" y="610" />
              <mxPoint x="1081" y="610" />
            </Array>
          </mxGeometry>
        </mxCell>
        <mxCell id="Kz4SoSz2w6yojEE7RU1R-37" style="edgeStyle=orthogonalEdgeStyle;shape=flexArrow;rounded=0;orthogonalLoop=1;jettySize=auto;html=1;fontSize=11;fontColor=#666666;endSize=6;fillColor=#ffe6cc;strokeColor=#d79b00;" edge="1" parent="1" source="Kz4SoSz2w6yojEE7RU1R-20" target="Kz4SoSz2w6yojEE7RU1R-27">
          <mxGeometry relative="1" as="geometry">
            <Array as="points">
              <mxPoint x="1203" y="610" />
              <mxPoint x="1164" y="610" />
            </Array>
          </mxGeometry>
        </mxCell>
        <mxCell id="Kz4SoSz2w6yojEE7RU1R-38" style="edgeStyle=orthogonalEdgeStyle;shape=flexArrow;rounded=0;orthogonalLoop=1;jettySize=auto;html=1;entryX=0.5;entryY=0;entryDx=0;entryDy=0;fontSize=11;fontColor=#666666;endSize=6;fillColor=#ffe6cc;strokeColor=#d79b00;" edge="1" parent="1">
          <mxGeometry relative="1" as="geometry">
            <mxPoint x="1203" y="570" as="sourcePoint" />
            <mxPoint x="1250.8186619718313" y="680" as="targetPoint" />
            <Array as="points">
              <mxPoint x="1203" y="610" />
              <mxPoint x="1251" y="610" />
            </Array>
          </mxGeometry>
        </mxCell>
        <mxCell id="Kz4SoSz2w6yojEE7RU1R-40" style="edgeStyle=orthogonalEdgeStyle;shape=flexArrow;rounded=0;orthogonalLoop=1;jettySize=auto;html=1;fontSize=11;fontColor=#666666;endSize=6;fillColor=#ffe6cc;strokeColor=#d79b00;" edge="1" parent="1" source="Kz4SoSz2w6yojEE7RU1R-20" target="Kz4SoSz2w6yojEE7RU1R-30">
          <mxGeometry relative="1" as="geometry">
            <Array as="points">
              <mxPoint x="1203" y="610" />
              <mxPoint x="1418" y="610" />
            </Array>
          </mxGeometry>
        </mxCell>
        <mxCell id="Kz4SoSz2w6yojEE7RU1R-41" style="edgeStyle=orthogonalEdgeStyle;shape=flexArrow;rounded=0;orthogonalLoop=1;jettySize=auto;html=1;entryX=0.5;entryY=0;entryDx=0;entryDy=0;fontSize=11;fontColor=#666666;endSize=6;fillColor=#ffe6cc;strokeColor=#d79b00;" edge="1" parent="1" source="Kz4SoSz2w6yojEE7RU1R-20" target="Kz4SoSz2w6yojEE7RU1R-29">
          <mxGeometry relative="1" as="geometry">
            <Array as="points">
              <mxPoint x="1203" y="610" />
              <mxPoint x="1334" y="610" />
            </Array>
          </mxGeometry>
        </mxCell>
        <mxCell id="Kz4SoSz2w6yojEE7RU1R-20" value="&lt;div style=&quot;font-size: 14px;&quot;&gt;&lt;font style=&quot;font-size: 14px;&quot; color=&quot;#666666&quot;&gt;&lt;b&gt;&lt;font style=&quot;font-size: 14px;&quot;&gt;mes系统功能模块&lt;/font&gt;&lt;/b&gt;&lt;/font&gt;&lt;/div&gt;" style="rounded=0;whiteSpace=wrap;html=1;strokeColor=#d79b00;fontSize=11;fillColor=#ffe6cc;gradientColor=#FFCC99;gradientDirection=radial;" vertex="1" parent="1">
          <mxGeometry x="1138" y="530" width="130" height="40" as="geometry" />
        </mxCell>
        <mxCell id="Kz4SoSz2w6yojEE7RU1R-21" value="&lt;div style=&quot;font-size: 11px;&quot;&gt;&lt;font style=&quot;font-size: 11px;&quot; color=&quot;#666666&quot;&gt;&lt;b style=&quot;font-size: 11px;&quot;&gt;&lt;font style=&quot;font-size: 11px;&quot;&gt;详细生产&lt;/font&gt;&lt;/b&gt;&lt;/font&gt;&lt;/div&gt;&lt;div&gt;&lt;font style=&quot;font-size: 11px;&quot; color=&quot;#666666&quot;&gt;&lt;b style=&quot;font-size: 11px;&quot;&gt;&lt;font style=&quot;font-size: 11px;&quot;&gt;计划&lt;/font&gt;&lt;/b&gt;&lt;/font&gt;&lt;b&gt;和控制&lt;/b&gt;&lt;br&gt;&lt;/div&gt;" style="rounded=0;whiteSpace=wrap;html=1;strokeColor=#d79b00;fontSize=11;fillColor=#ffe6cc;gradientColor=#FFCC99;gradientDirection=radial;fontColor=#666666;container=0;" vertex="1" parent="1">
          <mxGeometry x="875" y="680" width="72.58802816901408" height="37" as="geometry" />
        </mxCell>
        <mxCell id="Kz4SoSz2w6yojEE7RU1R-25" value="&lt;b style=&quot;font-size: 11px;&quot;&gt;信息管理&lt;/b&gt;" style="rounded=0;whiteSpace=wrap;html=1;strokeColor=#d79b00;fontSize=11;fillColor=#ffe6cc;gradientColor=#FFCC99;gradientDirection=radial;fontColor=#666666;container=0;" vertex="1" parent="1">
          <mxGeometry x="960.8568075117371" y="680" width="72.58802816901408" height="37" as="geometry" />
        </mxCell>
        <mxCell id="Kz4SoSz2w6yojEE7RU1R-26" value="&lt;b style=&quot;font-size: 11px;&quot;&gt;质量管理&lt;/b&gt;" style="rounded=0;whiteSpace=wrap;html=1;strokeColor=#d79b00;fontSize=11;fillColor=#ffe6cc;gradientColor=#FFCC99;gradientDirection=radial;fontColor=#666666;container=0;" vertex="1" parent="1">
          <mxGeometry x="1044.3720657276995" y="680" width="72.58802816901408" height="37" as="geometry" />
        </mxCell>
        <mxCell id="Kz4SoSz2w6yojEE7RU1R-27" value="&lt;b style=&quot;font-size: 11px;&quot;&gt;人力资源管理&lt;/b&gt;" style="rounded=0;whiteSpace=wrap;html=1;strokeColor=#d79b00;fontSize=11;fillColor=#ffe6cc;gradientColor=#FFCC99;gradientDirection=radial;fontColor=#666666;container=0;" vertex="1" parent="1">
          <mxGeometry x="1127.887323943662" y="680" width="72.58802816901408" height="37" as="geometry" />
        </mxCell>
        <mxCell id="Kz4SoSz2w6yojEE7RU1R-28" value="&lt;b style=&quot;font-size: 11px;&quot;&gt;生产工具管理&lt;/b&gt;" style="rounded=0;whiteSpace=wrap;html=1;strokeColor=#d79b00;fontSize=11;fillColor=#ffe6cc;gradientColor=#FFCC99;gradientDirection=radial;fontColor=#666666;container=0;" vertex="1" parent="1">
          <mxGeometry x="1214.524647887324" y="680" width="72.58802816901408" height="37" as="geometry" />
        </mxCell>
        <mxCell id="Kz4SoSz2w6yojEE7RU1R-29" value="&lt;b&gt;效率分析&lt;/b&gt;" style="rounded=0;whiteSpace=wrap;html=1;strokeColor=#d79b00;fontSize=11;fillColor=#ffe6cc;gradientColor=#FFCC99;gradientDirection=radial;fontColor=#666666;container=0;" vertex="1" parent="1">
          <mxGeometry x="1298.0399061032863" y="680" width="72.58802816901408" height="37" as="geometry" />
        </mxCell>
        <mxCell id="Kz4SoSz2w6yojEE7RU1R-30" value="&lt;b style=&quot;font-size: 11px;&quot;&gt;数据采集&lt;/b&gt;" style="rounded=0;whiteSpace=wrap;html=1;strokeColor=#d79b00;fontSize=11;fillColor=#ffe6cc;gradientColor=#FFCC99;gradientDirection=radial;fontColor=#666666;container=0;" vertex="1" parent="1">
          <mxGeometry x="1381.555164319249" y="680" width="72.58802816901408" height="37" as="geometry" />
        </mxCell>
        <mxCell id="Kz4SoSz2w6yojEE7RU1R-31" value="&lt;b&gt;物料管理&lt;/b&gt;" style="rounded=0;whiteSpace=wrap;html=1;strokeColor=#d79b00;fontSize=11;fillColor=#ffe6cc;gradientColor=#FFCC99;gradientDirection=radial;fontColor=#666666;container=0;" vertex="1" parent="1">
          <mxGeometry x="1467.4119718309857" y="680" width="72.58802816901408" height="37" as="geometry" />
        </mxCell>
        <mxCell id="Kz4SoSz2w6yojEE7RU1R-39" style="edgeStyle=orthogonalEdgeStyle;shape=flexArrow;rounded=0;orthogonalLoop=1;jettySize=auto;html=1;fontSize=11;fontColor=#666666;endSize=6;fillColor=#ffe6cc;strokeColor=#d79b00;" edge="1" parent="1" source="Kz4SoSz2w6yojEE7RU1R-20" target="Kz4SoSz2w6yojEE7RU1R-31">
          <mxGeometry relative="1" as="geometry">
            <Array as="points">
              <mxPoint x="1203" y="610" />
              <mxPoint x="1504" y="610" />
            </Array>
          </mxGeometry>
        </mxCell>
        <mxCell id="Kz4SoSz2w6yojEE7RU1R-34" style="edgeStyle=orthogonalEdgeStyle;shape=flexArrow;rounded=0;orthogonalLoop=1;jettySize=auto;html=1;entryX=0.5;entryY=0;entryDx=0;entryDy=0;fontSize=11;fontColor=#666666;endSize=6;fillColor=#ffe6cc;strokeColor=#d79b00;" edge="1" parent="1" source="Kz4SoSz2w6yojEE7RU1R-20" target="Kz4SoSz2w6yojEE7RU1R-21">
          <mxGeometry relative="1" as="geometry">
            <Array as="points">
              <mxPoint x="1203" y="610" />
              <mxPoint x="911" y="610" />
            </Array>
          </mxGeometry>
        </mxCell>
      </root>
    </mxGraphModel>
  </diagram>
  <diagram id="m-8ehMZ6eu1xI0JbzgWa" name="第 2 页">
    <mxGraphModel dx="1902" dy="1175" grid="1" gridSize="10" guides="1" tooltips="1" connect="1" arrows="1" fold="1" page="1" pageScale="1" pageWidth="827" pageHeight="1169" math="0" shadow="0">
      <root>
        <mxCell id="0" />
        <mxCell id="1" parent="0" />
      </root>
    </mxGraphModel>
  </diagram>
</mxfile>
